<svg width="24" height="24" viewBox="0 0 24 24" fill="none" xmlns="http://www.w3.org/2000/svg">
<path d="M21.084 2.60339C21.0349 2.60139 20.9858 2.60106 20.9367 2.60245H19.0861V1.01207C19.0862 0.375913 18.4789 0 17.8428 0H16.1368C15.5006 0 15.038 0.375913 15.038 1.01207V2.60239H8.09819V1.01207C8.09819 0.375913 7.63555 0 6.9994 0H5.29335C4.65725 0 4.04999 0.375913 4.04999 1.01207V2.60239H2.19942C1.01811 2.56946 0.0337717 3.50044 0.000840553 4.6817C-0.000543109 4.73074 -0.000211019 4.77989 0.00178145 4.82892V21.5422C0.00178145 22.8145 0.927064 24 2.19937 24H20.9368C22.2091 24 23.1344 22.8145 23.1344 21.5422V4.82892C23.1828 3.64816 22.2647 2.65176 21.084 2.60339ZM16.1368 1.15663H17.9296V4.33734H16.1368V1.15663ZM5.2934 1.15663H6.94162V4.33734H5.2934V1.15663ZM21.9778 21.5422C21.9778 22.1783 21.573 22.8434 20.9368 22.8434H2.19942C1.56327 22.8434 1.15847 22.1783 1.15847 21.5422V9.25305H21.9778V21.5422ZM21.9778 4.82892V8.09641H1.15841V4.82892C1.10943 4.28819 1.50809 3.81011 2.04883 3.76112C2.09886 3.75659 2.14922 3.75592 2.19937 3.75908H4.04999V4.39523C4.04999 5.03138 4.65719 5.49402 5.29335 5.49402H6.9994C7.59006 5.51024 8.08198 5.0445 8.09819 4.45384C8.09875 4.4343 8.09875 4.41477 8.09819 4.39523V3.75902H15.038V4.39517C15.0218 4.98583 15.4875 5.47775 16.0782 5.49397C16.0977 5.49452 16.1172 5.49452 16.1368 5.49397H17.8428C18.479 5.49397 19.0862 5.03133 19.0862 4.39517V3.75902H20.9368C21.4787 3.72487 21.9457 4.13648 21.9798 4.67838C21.983 4.72853 21.9823 4.77889 21.9778 4.82892Z" fill="#D2232A"/>
<path d="M8.35842 17.147L7.83794 20.0385C7.81735 20.1626 7.83772 20.29 7.896 20.4014C8.04405 20.6844 8.39351 20.7938 8.6765 20.6457L11.2789 19.2867L13.8813 20.6457L14.1415 20.7036C14.267 20.7058 14.3895 20.6649 14.4885 20.5879C14.6613 20.4617 14.7503 20.2503 14.7198 20.0385L14.1994 17.1469L16.3102 15.1228C16.4613 14.9596 16.516 14.7294 16.4548 14.5156C16.3769 14.318 16.2015 14.1755 15.9921 14.1397L13.1006 13.706L11.7994 11.0746C11.7426 10.9575 11.6481 10.8629 11.531 10.8062C11.2435 10.667 10.8977 10.7872 10.7584 11.0746L9.45721 13.706L6.56564 14.1397C6.35632 14.1755 6.18087 14.318 6.103 14.5156C6.04173 14.7294 6.09657 14.9596 6.24756 15.1228L8.35842 17.147ZM9.9488 14.8048C10.1304 14.7776 10.2843 14.6568 10.3536 14.4867L11.2789 12.6361L12.2042 14.4867C12.2736 14.6568 12.4274 14.7776 12.609 14.8048L14.662 15.0939L13.1873 16.5108C13.0499 16.6468 12.9855 16.8401 13.0138 17.0313L13.3607 19.0843L11.5391 18.1012L11.2788 18.0433L11.0186 18.1012L9.19692 19.0843L9.54388 17.0313C9.57222 16.8401 9.50774 16.6468 9.37037 16.5108L7.89567 15.0939L9.9488 14.8048Z" fill="#D2232A"/>
</svg>
